# AST/ASF file generated using VICON BodyLanguage
# -----------------------------------------------
:version 1.10
:name VICON
:units
  mass 1.0
  length 0.45
  angle deg
:documentation
   .ast/.asf automatically generated from VICON data using
   VICON BodyBuilder and BodyLanguage model FoxedUp or BRILLIANT.MOD
:root
   order TX TY TZ RX RY RZ
   axis XYZ
   position 0 0 0  
   orientation 0 0 0 
:bonedata
  begin
     id 1 
     name lhipjoint
     direction 0.621036 -0.695554 0.361275 
     length 2.46325 
     axis 0 0 0  XYZ
  end
  begin
     id 2 
     name lfemur
     direction 0.34202 -0.939693 0  
     length 6.54784  
     axis 0 0 20  XYZ
    dof rx ry rz
    limits (-160.0 20.0)
           (-70.0 70.0)
           (-60.0 70.0)
  end
  begin
     id 3 
     name ltibia
     direction 0.34202 -0.939693 0   
     length 7.84737   
     axis 0 0 20   XYZ
    dof rx
    limits (-10.0 170.0)
  end
  begin
     id 4 
     name lfoot
     direction 0.0790693 -0.217241 0.97291   
     length 2.59747   
     axis -90 7.62852e-016 20   XYZ
    dof rx rz
    limits (-45.0 90.0)
           (-70.0 20.0)
  end
  begin
     id 5 
     name ltoes
     direction 1.53572e-011 -4.21898e-011 1   
     length 1.29919   
     axis -90 7.62852e-016 20   XYZ
    dof rx
    limits (-90.0 20.0)
  end
  begin
     id 6 
     name rhipjoint
     direction -0.602353 -0.708375 0.367935   
     length 2.41867  
     axis 0 0 0  XYZ 
  end
  begin
     id 7 
     name rfemur
     direction -0.34202 -0.939693 0   
     length 6.92065   
     axis 0 0 -20   XYZ
    dof rx ry rz
    limits (-160.0 20.0)
           (-70.0 70.0)
           (-70.0 60.0)
  end
  begin
     id 8 
     name rtibia
     direction -0.34202 -0.939693 0   
     length 7.88883   
     axis 0 0 -20   XYZ
    dof rx
    limits (-10.0 170.0)
 end
 begin
     id 9 
     name rfoot
     direction -0.0768692 -0.211196 0.974416   
     length 2.43714  
     axis -90 -7.62852e-016 -20   XYZ
    dof rx rz
    limits (-45.0 90.0)
           (-20.0 70.0)
  end
  begin
     id 10 
     name rtoes
     direction -1.53575e-011 -4.21933e-011 1   
     length 1.22113   
     axis -90 -7.62852e-016 -20   XYZ
    dof rx
    limits (-90.0 20.0)
  end
  begin
     id 11 
     name lowerback
     direction 0.0197937 0.98943 -0.143655   
     length 2.16931   
     axis 0 0 0   XYZ
    dof rx ry rz
    limits (-20.0 45.0)
           (-30.0 30.0)
           (-30.0 30.0)
  end
  begin
     id 12 
     name upperback
     direction -0.00183968 0.999975 0.00684288   
     length 2.17221   
     axis 0 0 0   XYZ
    dof rx ry rz
    limits (-20.0 45.0)
           (-30.0 30.0)
           (-30.0 30.0)
  end
  begin
     id 13 
     name thorax
     direction -0.00950244 0.997208 0.0740685   
     length 2.22549   
     axis 0 0 0   XYZ
    dof rx ry rz
    limits (-20.0 45.0)
           (-30.0 30.0)
           (-30.0 30.0)
  end
  begin
     id 14 
     name lowerneck
     direction 0.0218238 0.996215 0.0841425   
     length 1.77269   
     axis 0 0 0   XYZ
    dof rx ry rz
    limits (-20.0 45.0)
           (-30.0 30.0)
           (-30.0 30.0)
  end
  begin
     id 15 
     name upperneck
     direction -0.00430652 0.994214 -0.107332   
     length 1.76534   
     axis 0 0 0   XYZ
    dof rx ry rz
    limits (-20.0 45.0)
           (-30.0 30.0)
           (-30.0 30.0)
  end
  begin
     id 16
     name head
     direction -0.00328946 0.998959 -0.0454998  
     length 1.82634  
     axis 0 0 0   XYZ
    dof rx ry rz
    limits (-20.0 45.0)
           (-30.0 30.0)
           (-30.0 30.0)
  end
  begin
     id 17 
     name lclavicle
     direction 0.970962 0.239191 0.00450212  
     length 3.84872  
     axis 0 0 0   XYZ
    dof ry rz
    limits (-20.0 10.0)
           (0.0 20.0)
  end
  begin
     id 18 
     name lhumerus
     direction 1 -4.48966e-011 5.74696e-028   
     length 5.22771   
     axis 180 -30 -90   XYZ
    dof rx ry rz
    limits (-60.0 90.0)
           (-90.0 90.0)
           (-90.0 90.0)
  end
  begin
     id 19
     name lradius
     direction 1 -4.4896e-011 4.25109e-027   
     length 3.45251   
     axis 180 -30 -90   XYZ
    dof rx
    limits (-10.0 170.0)
  end
  begin
     id 20
     name lwrist
     direction 1 -4.48971e-011 1.15382e-027   
     length 1.72626   
     axis -5.52449e-016 90 90   XYZ
    dof ry
    limits (-180.0 0.0)
 end
  begin
     id 21 
     name lhand
     direction 1 -4.49034e-011 2.30765e-027   
     length 0.552119   
     axis -1.47248e-015 90 90   XYZ
    dof rx rz
    limits (-90.0 90.0)
           (-45.0 45.0)
  end
  begin
     id 22 
     name lfingers
     direction 1 -4.48951e-011 4.61529e-027   
     length 0.445133   
     axis -2.94495e-015 90 90   XYZ
    dof rx
    limits (0.0 90.0)
  end
  begin
     id 23
     name lthumb
     direction 0.707107 -6.34991e-011 0.707107   
     length 0.639124   
     axis -90 45 2.85299e-015   XYZ
    dof rx rz
    limits (-45.0 45.0)
           (-45.0 45.0)
  end
  begin
     id 24 
     name rclavicle
     direction -0.97424 0.222511 -0.0366699   
     length 3.73439  
     axis 0 0 0   XYZ 
    dof ry rz
    limits (-10.0 20.0)
           (-20.0 0.0)
  end
  begin
     id 25 
     name rhumerus
     direction -1 -4.48956e-011 -4.97258e-028  
     length 5.2398   
     axis 180 30 90   XYZ
    dof rx ry rz
    limits (-90.0 60.0)
           (-90.0 90.0)
           (-90.0 90.0)
  end
  begin
     id 26 
     name rradius
     direction -1 -4.4897e-011 -1.72611e-027   
     length 3.48042   
     axis 180 30 90   XYZ
    dof rx
    limits (-10.0 170.0)
  end
  begin
     id 27 
     name rwrist
     direction -1 -4.48976e-011 1.15382e-027   
     length 1.74021   
     axis -5.52449e-016 -90 -90   XYZ
    dof ry
    limits (-180.0 0.0)
  end
  begin
     id 28
     name rhand
     direction -1 -4.48963e-011 2.30765e-027   
     length 0.618713   
     axis -1.47248e-015 -90 -90   XYZ
    dof rx rz
    limits (-90.0 90.0)
           (-45.0 45.0)
  end
  begin
     id 29
     name rfingers
     direction -1 -4.4888e-011 4.61529e-027   
     length 0.498823   
     axis -2.94495e-015 -90 -90   XYZ
    dof rx
    limits (0.0 90.0)
  end
  begin
     id 30
     name rthumb
     direction -0.707107 -6.34968e-011 0.707107   
     length 0.716213   
     axis -90 -45 -2.85299e-015   XYZ
    dof rx rz
    limits (-45.0 45.0)
           (-45.0 45.0)
  end
:hierarchy
  begin
    root lhipjoint rhipjoint lowerback
    lhipjoint lfemur
    lfemur ltibia
    ltibia lfoot
    lfoot ltoes
    rhipjoint rfemur
    rfemur rtibia
    rtibia rfoot
    rfoot rtoes
    lowerback upperback
    upperback thorax
    thorax lowerneck lclavicle rclavicle
    lowerneck upperneck
    upperneck head
    lclavicle lhumerus
    lhumerus lradius
    lradius lwrist
    lwrist lhand lthumb
    lhand lfingers
    rclavicle rhumerus
    rhumerus rradius
    rradius rwrist
    rwrist rhand rthumb
    rhand rfingers
  end

#!OML:ASF G:\JayActor3\Patient Classification 1\Patient 1\Session 5\male.ASF
:FULLY-SPECIFIED
:DEGREES
16
root 7.31671 14.6212 -6.63357 129.499 -86.8398 -134.991
lowerback 16.5623 -0.546632 2.89021
upperback 2.22177 -0.307208 0.321751
thorax -6.91932 -0.274596 -1.22209
lowerneck -16.1661 1.93685 3.57511
upperneck 18.251 1.9381 -1.31523
head 8.39541 0.988567 -0.8069
rclavicle 6.48535e-015 -1.06847e-014
rhumerus 25.7941 16.7443 -69.1764
rradius 58.2057
rwrist 15.4888
rhand -6.69507 -2.89255
rfingers 7.12502
rthumb 19.1641 -31.9684
lclavicle 6.48535e-015 -1.06847e-014
lhumerus 17.5399 -16.0027 71.494
lradius 68.935
lwrist -5.55544
lhand -0.891322 18.2423
lfingers 7.12502
lthumb 24.7364 46.663
rfemur -31.2802 -16.9184 17.995
rtibia 74.4026
rfoot -33.7536 -11.7724
rtoes -11.5287
lfemur -30.4629 17.6543 -10.2545
ltibia 70.9096
lfoot -29.2902 17.0886
ltoes -11.4745
17
root 7.3164 14.6199 -6.62958 128.645 -86.8159 -134.121
lowerback 16.5965 -0.5599 2.89361
upperback 2.21614 -0.321498 0.341391
thorax -6.94465 -0.281835 -1.19967
lowerneck -16.1392 1.9075 3.55987
upperneck 18.1188 1.89757 -1.28237
head 8.34447 0.972285 -0.798181
rclavicle 2.13072e-015 2.43511e-015
rhumerus 25.7415 16.7114 -69.181
rradius 58.3687
rwrist 15.468
rhand -6.65972 -2.967
rfingers 7.12502
rthumb 19.1981 -32.0394
lclavicle 2.13072e-015 2.43511e-015
lhumerus 17.495 -15.9792 71.5301
lradius 69.052
lwrist -5.58674
lhand -0.807156 18.3121
lfingers 7.12502
lthumb 24.817 46.7217
rfemur -31.2938 -16.941 18.0301
rtibia 74.404
rfoot -33.7423 -11.7514
rtoes -11.5352
lfemur -30.4999 17.6341 -10.2174
ltibia 70.9433
lfoot -29.3177 17.0594
ltoes -11.4392
18
root 7.31629 14.6183 -6.62592 127.736 -86.7957 -133.196
lowerback 16.6318 -0.573567 2.89727
upperback 2.21059 -0.336412 0.358255
thorax -6.97056 -0.289413 -1.1802
lowerneck -16.1243 1.87547 3.5509
upperneck 18.0058 1.85141 -1.25071
head 8.30215 0.953533 -0.791507
rclavicle -2.34193e-015 -5.31749e-015
rhumerus 25.6736 16.6654 -69.1947
rradius 58.5627
rwrist 15.4744
rhand -6.60811 -3.04574
rfingers 7.12502
rthumb 19.2477 -32.1132
lclavicle -2.34193e-015 -5.31749e-015
lhumerus 17.4446 -15.9411 71.5803
lradius 69.1989
lwrist -5.62754
lhand -0.657793 18.4356
lfingers 7.12502
lthumb 24.9602 46.8253
rfemur -31.3102 -16.9682 18.0642
rtibia 74.4087
rfoot -33.7296 -11.7297
rtoes -11.5537
lfemur -30.5409 17.6115 -10.1791
ltibia 70.9784
lfoot -29.3455 17.0175
ltoes -11.4022
19
root 7.31631 14.6165 -6.62242 126.855 -86.7879 -132.296
lowerback 16.6646 -0.587856 2.89193
upperback 2.20922 -0.354392 0.370349
thorax -6.9907 -0.298228 -1.16003
lowerneck -16.1168 1.84244 3.5443
upperneck 17.8991 1.8027 -1.21752
head 8.2633 0.933831 -0.784965
rclavicle 6.1499e-015 -3.13086e-015
rhumerus 25.5932 16.6089 -69.2153
rradius 58.7994
rwrist 15.5361
rhand -6.5267 -3.12545
rfingers 7.12502
rthumb 19.326 -32.1851
lclavicle 6.1499e-015 -3.13086e-015
lhumerus 17.3908 -15.884 71.6432
lradius 69.3836
lwrist -5.67175
lhand -0.435088 18.6141
lfingers 7.12502
lthumb 25.1736 46.9741
rfemur -31.3294 -17.003 18.0844
rtibia 74.4185
rfoot -33.7153 -11.7001
rtoes -11.5719
lfemur -30.5849 17.5795 -10.153
ltibia 71.013
lfoot -29.3713 16.9751
ltoes -11.3686
20
root 7.31647 14.6143 -6.61905 126.026 -86.7951 -131.448
lowerback 16.6945 -0.6029 2.87461
upperback 2.21048 -0.376158 0.376441
thorax -7.00649 -0.308561 -1.13865
lowerneck -16.1119 1.80908 3.53948
upperneck 17.7943 1.75244 -1.18155
head 8.22559 0.913745 -0.777944
rclavicle 1.19271e-015 -7.40473e-015
rhumerus 25.495 16.5449 -69.2452
rradius 59.0886
rwrist 15.6691
rhand -6.40831 -3.20343
rfingers 7.12502
rthumb 19.4398 -32.2517
lclavicle 1.19271e-015 -7.40473e-015
lhumerus 17.3285 -15.8093 71.7174
lradius 69.6145
lwrist -5.71772
lhand -0.145165 18.8446
lfingers 7.12502
lthumb 25.4513 47.1653
rfemur -31.3554 -17.0501 18.0869
rtibia 74.435
rfoot -33.6973 -11.6631
rtoes -11.5996
lfemur -30.6335 17.534 -10.1451
ltibia 71.0454
lfoot -29.3963 16.9338
ltoes -11.331
21
root 7.31686 14.6121 -6.61579 125.234 -86.8198 -130.631
lowerback 16.7188 -0.61867 2.84333
upperback 2.21503 -0.402083 0.37749
thorax -7.0158 -0.320499 -1.11383
lowerneck -16.1073 1.77469 3.53748
upperneck 17.6858 1.70079 -1.14848
head 8.18679 0.892849 -0.772505
rclavicle 5.684e-015 1.04362e-015
rhumerus 25.3786 16.4753 -69.2824
rradius 59.4355
rwrist 15.8732
rhand -6.24804 -3.27558
rfingers 7.12502
rthumb 19.5939 -32.3082
lclavicle 5.684e-015 1.04362e-015
lhumerus 17.2579 -15.7194 71.8028
lradius 69.8943
lwrist -5.76703
lhand 0.190071 19.1075
lfingers 7.12502
lthumb 25.7724 47.382
rfemur -31.3899 -17.1034 18.072
rtibia 74.4568
rfoot -33.6742 -11.6255
rtoes -11.6334
lfemur -30.6889 17.4694 -10.1601
ltibia 71.073
lfoot -29.4216 16.8995
ltoes -11.2869
22
root 7.31738 14.6102 -6.6125 124.506 -86.8679 -129.878
lowerback 16.7431 -0.635943 2.79372
upperback 2.22264 -0.433868 0.372795
thorax -7.02197 -0.334818 -1.08343
lowerneck -16.1046 1.73912 3.53142
upperneck 17.5753 1.64845 -1.11468
head 8.14762 0.871382 -0.766209
rclavicle 7.26806e-015 -6.06293e-015
rhumerus 25.2467 16.4062 -69.3204
rradius 59.8396
rwrist 16.1195
rhand -6.04592 -3.3411
rfingers 7.12502
rthumb 19.7882 -32.3538
lclavicle 7.26806e-015 -6.06293e-015
lhumerus 17.175 -15.6184 71.8963
lradius 70.2221
lwrist -5.82023
lhand 0.543933 19.3765
lfingers 7.12502
lthumb 26.1113 47.6013
rfemur -31.4284 -17.1655 18.0317
rtibia 74.482
rfoot -33.6376 -11.6084
rtoes -11.7086
lfemur -30.7439 17.3804 -10.2063
ltibia 71.0916
lfoot -29.449 16.8799
ltoes -11.2319
23
root 7.31799 14.6086 -6.60925 123.747 -86.9335 -129.095
lowerback 16.7724 -0.654826 2.73321
upperback 2.22993 -0.469832 0.364743
thorax -7.03128 -0.350943 -1.04944
lowerneck -16.1007 1.70135 3.52009
upperneck 17.466 1.5945 -1.08095
head 8.10862 0.848725 -0.759262
rclavicle 1.14301e-015 -9.44227e-016
rhumerus 25.0947 16.3442 -69.3559
rradius 60.2982
rwrist 16.3644
rhand -5.81327 -3.40821
rfingers 7.12502
rthumb 20.0119 -32.3977
lclavicle 1.14301e-015 -9.44227e-016
lhumerus 17.075 -15.5161 71.996
lradius 70.5926
lwrist -5.8824
lhand 0.877537 19.623
lfingers 7.12502
lthumb 26.4306 47.8003
rfemur -31.4673 -17.2358 17.9748
rtibia 74.5082
rfoot -33.5894 -11.6119
rtoes -11.823
lfemur -30.7967 17.2667 -10.2743
ltibia 71.1
lfoot -29.4775 16.8756
ltoes -11.1752
24
root 7.3189 14.6072 -6.60607 122.895 -87.012 -128.216
lowerback 16.8095 -0.675918 2.66758
upperback 2.2326 -0.509303 0.354978
thorax -7.04988 -0.368721 -1.01347
lowerneck -16.0956 1.66107 3.50094
upperneck 17.364 1.53887 -1.04642
head 8.07181 0.824762 -0.750966
rclavicle -5.28643e-015 5.46658e-015
rhumerus 24.9251 16.2967 -69.3827
rradius 60.803
rwrist 16.5577
rhand -5.57236 -3.48874
rfingers 7.12502
rthumb 20.2434 -32.4539
lclavicle -5.28643e-015 5.46658e-015
lhumerus 16.9541 -15.4201 72.0975
lradius 70.9992
lwrist -5.9504
lhand 1.15489 19.8269
lfingers 7.12502
lthumb 26.6961 47.964
rfemur -31.5097 -17.3061 17.9104
rtibia 74.5336
rfoot -33.5359 -11.6365
rtoes -11.9534
lfemur -30.8522 17.1305 -10.358
ltibia 71.0993
lfoot -29.5051 16.8829
ltoes -11.1136
